/* XPM */
static char *32wall_xpm[] = {
/* width height num_colors chars_per_pixel */
"    32    32      256            2",
/* colors */
"`` c #040204",
"`. c #445e64",
"`# c #342e2c",
"`a c #544644",
"`b c #74868c",
"`c c #746264",
"`d c #344a4c",
"`e c #1c1a1c",
"`f c #7c7674",
"`g c #443634",
"`h c #5c524c",
"`i c #0c0e0c",
"`j c #647274",
"`k c #747274",
"`l c #2c2624",
"`m c #645a54",
"`n c #3c5254",
"`o c #3c2e2c",
"`p c #544e4c",
"`q c #a4a6ac",
"`r c #443e3c",
"`s c #6c5654",
"`t c #1c1214",
"`u c #5c6a6c",
"`v c #2c1e1c",
"`w c #64524c",
"`x c #5c4a44",
"`y c #8c8684",
"`z c #746a64",
"`A c #8c7e7c",
"`B c #141614",
"`C c #846e6c",
"`D c #6c6264",
"`E c #4c4644",
"`F c #24221c",
"`G c #140e0c",
"`H c #342a24",
"`I c #6c5a5c",
"`J c #9c9294",
"`K c #140a0c",
"`L c #2c363c",
"`M c #544a44",
"`N c #3c4a54",
"`O c #443a34",
"`P c #44525c",
"`Q c #3c3634",
"`R c #4c3e3c",
"`S c #64565c",
"`T c #9c8a8c",
"`U c #14120c",
"`V c #0c0a0c",
"`W c #34322c",
"`X c #7c666c",
"`Y c #241a1c",
"`Z c #847674",
"`0 c #5c5654",
"`1 c #7c6e6c",
"`2 c #2c2a24",
"`3 c #645e5c",
"`4 c #3c322c",
"`5 c #645654",
"`6 c #948684",
"`7 c #7c6a6c",
"`8 c #948284",
".` c #84726c",
".. c #4c423c",
".# c #0c0604",
".a c #4c5a5c",
".b c #54464c",
".c c #746664",
".d c #344a54",
".e c #44363c",
".f c #5c5254",
".g c #6c7a84",
".h c #645a5c",
".i c #3c525c",
".j c #5c4e4c",
".k c #acaeac",
".l c #1c1614",
".m c #64666c",
".n c #2c2224",
".o c #645254",
".p c #5c4a4c",
".q c #746a6c",
".r c #8c8284",
".s c #242224",
".t c #140e14",
".u c #342a2c",
".v c #6c5e5c",
".w c #544a4c",
".x c #3c4e54",
".y c #443a3c",
".z c #44565c",
".A c #141214",
".B c #343234",
".C c #241e1c",
".D c #847a7c",
".E c #7c7274",
".F c #2c2a2c",
".G c #3c3234",
".H c #948a8c",
".I c #847274",
".J c #4c4244",
".K c #000000",
".L c #000000",
".M c #000000",
".N c #000000",
".O c #000000",
".P c #000000",
".Q c #000000",
".R c #000000",
".S c #000000",
".T c #000000",
".U c #000000",
".V c #000000",
".W c #000000",
".X c #000000",
".Y c #000000",
".Z c #000000",
".0 c #000000",
".1 c #000000",
".2 c #000000",
".3 c #000000",
".4 c #000000",
".5 c #000000",
".6 c #000000",
".7 c #000000",
".8 c #000000",
"#` c #000000",
"#. c #000000",
"## c #000000",
"#a c #000000",
"#b c #000000",
"#c c #000000",
"#d c #000000",
"#e c #000000",
"#f c #000000",
"#g c #000000",
"#h c #000000",
"#i c #000000",
"#j c #000000",
"#k c #000000",
"#l c #000000",
"#m c #000000",
"#n c #000000",
"#o c #000000",
"#p c #000000",
"#q c #000000",
"#r c #000000",
"#s c #000000",
"#t c #000000",
"#u c #000000",
"#v c #000000",
"#w c #000000",
"#x c #000000",
"#y c #000000",
"#z c #000000",
"#A c #000000",
"#B c #000000",
"#C c #000000",
"#D c #000000",
"#E c #000000",
"#F c #000000",
"#G c #000000",
"#H c #000000",
"#I c #000000",
"#J c #000000",
"#K c #000000",
"#L c #000000",
"#M c #000000",
"#N c #000000",
"#O c #000000",
"#P c #000000",
"#Q c #000000",
"#R c #000000",
"#S c #000000",
"#T c #000000",
"#U c #000000",
"#V c #000000",
"#W c #000000",
"#X c #000000",
"#Y c #000000",
"#Z c #000000",
"#0 c #000000",
"#1 c #000000",
"#2 c #000000",
"#3 c #000000",
"#4 c #000000",
"#5 c #000000",
"#6 c #000000",
"#7 c #000000",
"#8 c #000000",
"a` c #000000",
"a. c #000000",
"a# c #000000",
"aa c #000000",
"ab c #000000",
"ac c #000000",
"ad c #000000",
"ae c #000000",
"af c #000000",
"ag c #000000",
"ah c #000000",
"ai c #000000",
"aj c #000000",
"ak c #000000",
"al c #000000",
"am c #000000",
"an c #000000",
"ao c #000000",
"ap c #000000",
"aq c #000000",
"ar c #000000",
"as c #000000",
"at c #000000",
"au c #000000",
"av c #000000",
"aw c #000000",
"ax c #000000",
"ay c #000000",
"az c #000000",
"aA c #000000",
"aB c #000000",
"aC c #000000",
"aD c #000000",
"aE c #000000",
"aF c #000000",
"aG c #000000",
"aH c #000000",
"aI c #000000",
"aJ c #000000",
"aK c #000000",
"aL c #000000",
"aM c #000000",
"aN c #000000",
"aO c #000000",
"aP c #000000",
"aQ c #000000",
"aR c #000000",
"aS c #000000",
"aT c #000000",
"aU c #000000",
"aV c #000000",
"aW c #000000",
"aX c #000000",
"aY c #000000",
"aZ c #000000",
"a0 c #000000",
"a1 c #000000",
"a2 c #000000",
"a3 c #000000",
"a4 c #000000",
"a5 c #000000",
"a6 c #000000",
"a7 c #000000",
"a8 c #000000",
/* pixels */
".l`l.u.C.s.A`i.y`g.f.c.v`5.w.p`p`M`y`l.o.o`m.u`e`R`V`2`t`p`1.o.G",
".s`E`a`l`l`G.l.u`Q`H`c.v.j.J`x`5.o`6`e`T`y.c.j.s.F`G`a`i`3`I`M.s",
"`a`E.j`r.n.l`#`c.J`l.h`c.v.o.J`5.j.w.c`r`J.v`I.n`F`V.j.F.C.b`#`#",
".G.j.o`5.F.t.J.h`R.C`a.f`A`D`E`a.o`1.w.u`#`g`e`e.l`i`e.J`l.C.F.u",
".l.A`e.n.u`U.A.A`e.s.A.l.l.C`#`#`#.l`e`e.l.l.A.A`G.A`G.A.C.l`l.n",
".C.C.C`e`U.A.l`G`G`G.l.A.l`e.l.l.l.l.l`e.l`e`Y`e.l.l.l.A.l.l.l.s",
".j`r`#.s.n.l.C.F.C.y`M.y.n`G.A.l.A.s`e`t`e`Y.C.s.C`e.C.C.t`e.C.j",
"`r.C`#.G`Q`E.J.y`E.j`5.c.H`C`#.l.y`R.v`R.G`M.F.j.o`0.w.v`f`D`Q`Q",
"`a`I.u`#`#`#.o`M.o.v.v.v.c`R.v.A.l`#`1.j`I.p`a`r..`R`M.j`5`1.u.J",
".f.H.F.G`#`O.f`5`I.v.v.v`c`p.p`V.l`E.q`A`y.E.j.p.w`a.j`X.r`1.s`#",
"`c`5.u`Q`#`R.j.o`S`5`I`I.v.J.I.A`e`l`c.q.r`c.j.j`p.p.f`5.o`R.u`r",
"`m.J`g.y`#.y`r`E`a.j.j.o.j`a`f`t`B.b.y.o.w.j.j.j`a`a`E.J`M`S`#.b",
"`Q`R`p`O`#`E`Q.y`R.y.w`a.f.o`l`e.G`E`H`e`H.u`l.l.l.s.j.J.p`O`#`r",
".l`l`l.F`Q.n.C.l`e`e.n.y`F.A.n.A.l.j`2`e.A`e.C.C.s`l.e`2.C`0`#`Y",
"`e`e`l.u`e`Y.l.C.C.C`B.A.A.l`V`V.l`i`#.G`l.l`B.l`e`Y`l.s.C.C`Y`B",
"`t.A.l`V`V.A`e.s.l.A.n.C`R.w`E`R.t`V`V.l.l.A`Q.o.v`E`V`G.#.A`V`V",
".y`B.y`M`Z`l.l`a`1`p`4`1`c.c`c`5`l.`.s`G.l`7`Q.c`I`A.A.A`0`6.v.v",
".l.C`O`5`s`e.A.J.r.r.j`R.v`7`y`6.c.f.l.t`B`S.I.o`D`c`V`e`5.q.c`a",
".C`l.n.C.l.A`t.A`e`l.C.A.A.t`G`V`e.C.A`U.A.C.C.A`#.l`t.A`G.A`Y.l",
"`B`e`Y.s.s.s`e.l`l`l.l.t`B`U.t.n`e.n`e.l`Y`e.C`2`#.n`i.l.A.l.A`B",
".l.C.s`l.G`#`Y.C.l.s`#`i.A`G`#.s`F.C.s.n.C`e.s.l.l.l.w`G.A.A.l`Y",
".l`#.n`#`#`V`i`G.A`e.n.C`G`l.C`e.y`#`#`#.J.J`Q`Y`e.l.l`E`G.A`Y.l",
".y`B.j.c`c`1.o`5`o.l`e.u`i`e`e.y`H.c.j`I`5.p`M`I`5`l.t.l`l`i`G`#",
"`Q`s.c`X.v.j`R`7.k.n.C`l`G`Y`e.w.s.n`3`A.c`C.I`7`5.c`0`i.l.l.u.C",
".w.B.j.c`c.y..`S.E..`e.F`G.C.A`R`Q`Q.s.n.w`5.j`k`y`s.D`E.t.A.s.C",
"`a`O`D.J.w.o`a..`7.G.C.C`B`e`R`q`w`g`g`g`r`O.j`R`#`y`Z`0.A.A.F.l",
"`l.J.o.v.`.h`g`E.A`e.C`i.l`e`l`J.h.J.y`r..`r.F`e.l.#.q`l.l.A`#`t",
"`Y`B.C`#.n`#.n.A`#.C.l.A.A`Y.C`l`Q.J`E`r.u.s.C`Y`e.C.t.l.l.t`2.G",
"`Q.y.s`Y`e`e.C.C.l.l.C`e`t`e.l.l.l.A.l.n`l.C.l`e`e`e.l.l.A.A`G.s",
".l`V`G`i`U.t`U.A.A.t.A.l`e.l.l.A.A.A.A`t.l.A.t.A`t.l.A`V`V.t`G`G",
".l`4`Y`G.t`G`G`G.C.v.u`o`Y.s`l.n`v.n`v.C.s`o`M`Y`V`V.#`c`R.C.n.l",
".x.d.a.z`n`P`d`.`D.x.g`j`u.x.x.x`N.x.x.x`N`d`N`b`L`d.x`P`d.x`n.z"
};
