/* XPM */
static char *be03c381e8194553fd66e9d3d9fdfd10Y7Wg2vd4eP660Nk5[] = {
/* columns rows colors chars-per-pixel */
"64 64 24 1 ",
"  c #151212",
". c #1E1919",
"X c #262121",
"o c #2F2929",
"O c #363030",
"+ c #403635",
"@ c #463D3B",
"# c #394E57",
"$ c #4E4341",
"% c #564948",
"& c #5E5050",
"* c #665858",
"= c #6D5E5E",
"- c #496670",
"; c #4F717B",
": c #756566",
"> c #827272",
", c #547882",
"< c #597F8A",
"1 c #5F8893",
"2 c #71A0AD",
"3 c #878484",
"4 c #8F8E8E",
"5 c #9B9899",
/* pixels */
".  .o..O.X.    :%XO>>==***%&&$$%%$:3$o&%&&&&o..X@%   +X..=:>*$@@",
"X.o%%X.XO.     &&oO:=*==*&$&&%&***4:X@**===*%@XXXO   $..+3==>+Oo",
"XX@%%+oXoX  ...$%oo@:*==*%$%%&&***4*X$>>>::=&@oXXO  X&..O3***@oo",
"oO@@&+@XXX. ..X$@Oo+*===*%%$$&&**&3>OO:554>*&%oXXO .X=X.X>*&&+oX",
"$@@$*@$XXo..Xo$&$+oO%:=::*&$$%&*&&&>>O+354**@%oXXX  O=+.X@$%%Ooo",
"$$%%&$%$Xo..O$=:&+OO%*===*:&$%&&&&$$=:o%>==::*OXo   X*$..o+$ooOO",
"O&=:=%%*OX..@O$&@@oo$:*>>>3=&%&&&%::*:%O$*&&OX.XX    $$OXXXooooo",
"Xoo+%$$&+X. O&&*%oXXo++@*>%@@@@@$:>@OOXX........      X$+X.ooooo",
"X....Ooo.o.  XX.XX....XXXoo++@@@+@oXXXX.X......        .XO..oXoo",
".......OOo     . .oo.......XXXXXXX...X......          .  ....Oo.",
"..XXXoo.            ......X.............. . .     .      .... oo",
"ooXXX..........   ........................XXXXXXX...X...... .XXo",
"&&%@+XX.....XXX...o$%%@O....   .....o....XXXXXXXXXXXXXXX....oo+&",
"$@OOOoooooXXXXo@OO+@@@@@*X........XOX...X..XXXoooXXXXXXXX .OXXO*",
"+OOoo++OO@$$@@+@@$$%&&%>>4>OX. .X@%&%$X.XX+*Xo%++@**%&:>333*Ooo&",
"%$oXXOOoOO+@$$@$$%&*===>>>>>=oXX@OOo=:=:*$$@@+$===$@$@$$%%%$*OX$",
"@&&@+oOOOOO+%%$%%&*=====>:%$:$.X.XX$>%%&&&&%$$$@$@$$%%%&&&&=%X+%",
"%$*>+oOOOO++&&&&***======*&$@= .X.o@3&&=:=&&%%$$$$$$%%***>3:@X$@",
"$%3>OO+OOO+@&&&***========*$@$ .X O&3&:>>>>=&&%%%$$%&&=:>33:@XO+",
"*>3=+OO+OO+@&&&**=========*$*&  X.o=>*>453>:&&&%%&%%&&::>>:%OXX+",
">=:&+OO+OO+%&&&*****======&$:* .X.X%>&:444>:&&&&%&&%&&****%%O.X%",
"=&=@OO++OO+%%%&&&**&******&$=>.XX .O%:&=::*&&&&%%%%%&&&&&&$@&Xo=",
"&**@++@+OOO%$$$%%&&&&&*&&&%@:>.oX %$+&=&&&&&&&%$$$$$%%%%&&@&*.o=",
"*&@@@@@+OOO$@@@$$$%%%&&&&%$=3O .o +$@+$%%%%%%$%&$%%$$$$$@%&=+X+&",
"$+@$$$@++O+@@@$$%%$$$%%%%$$>&XX.XO@%@..$@@$@@OoXXXo@*$@@**=OOXO$",
"o++$%$@+OO@%OooOOOO+@&$$%=&XXXo ++@@$. ............XO&@&+++O%o@@",
".XOOOOOOO$+ooXXX.XXXoO%%OXX..X. .o%++XXX..XXXXXXXXoooOOoX@::=XXX",
"...XXXXOooX..X..XX..XXXXXX..O.  ..o*OX.........XXXoo+$OXX.ooX.X.",
".....oOoXX....XXXXXX.......X     ...+O..XXXXXXXXooooO+oooXXOX...",
"...XooXX...X...........  X.     .   .o$@oX    ....... ......X.. ",
"             . .   .       oo...       ..   oo@%%+..            ",
"X. .XX.......XOO+XXXO@+$=>>>:::&X..    ...Xo+%%=:>>:.     .O.. .",
"$+.X+$%%:$. .Xo&%:@OO$>>=*====*$OO>%.    X$>O%*==*=3..  .@>=$$%%",
"+...o+@%:>*...o:&3>&O@$**:::::=*+O@>&    O%:&+:===*>...X&43>>::*",
"...Xo+$*:%@ ..o=:=**@o%%*===::>::>@&O    o&&>%%:==*=...X=>>3>::&",
".XXoO%&%$%. ..X&>443>*o%&&*>333>$&=@.    .$*::O:=&:$  .Xo+@&&%@X",
"XXoOOOOoXX     .oo@$+oXXo.......Xooo.    .ooo+Xo@%O.  .....XoX..",
".XX.............X...      ...........    ...... ... ..    .....X",
"  .  ........  Xoo....            .      ...                    ",
"..XXXoooOoooX....X@o..   .   .OOoooOoXXXXXXXoO+@$$+o.... .......",
"..XXXoooOOooXXXX...+X.      XXXXXXXXXXXXXXXXXX.....X$..  .. ....",
"...XXXooOOoo........$X     .+XXoXoXXXooXXXXXXXX.....+&.      ...",
"..XXXX.XXX..     ....$    .ooXXXooOooooooooXXXXXX....o%.    ....",
".X@XX@@&%+.........X..@    OX.XXo&+++++@&*=**+oXXX....O%.   ....",
"O$o.X&:::>>>**=%O..XX.oo   XX.@oX&$@$%&&&%$@@%*:*X......+    ...",
"@X.O===&&&&%@%%%%%..X.oX   XX.+@Xo>:=&=:===**&&%&>*o.....X    o%",
".O&=:>>===*&$%*>34oXXXXX   XX.O*XXo%>43:::=::::=*&=>$... X.  @o.",
"&&%$%=:==*&$$%=>45%XXXXo  .XX..:OOoXX+*>:=>>>>>:==*&3*..... .OXX",
"&+O$&*==::$$$$*>33=XXXXo  .XX..=@O+OoXo+=:&$*:354==*:4@.. . .o.o",
"&$O@&&::=&$$%@$&*&*XXX.O ..X..o:@+++OOOOO+:*%$$%>3:=*>4o.   XX o",
"%%+@%>&$$%%%%@$%%>:oXX.o .X. &43&%+++O++@++$:&$@@*34=:3X... XX X",
"+$+%*&$&**&=&$$%:&o.X. X .X..353:%$+$++@@$@@O$%+oo@>4:>. .. OX X",
"X++&&$&&*=>=$@@*O...X.   ....&533>=*&%$@$@@@+oX....X>3=.... oo..",
"XOO$&&*:>:%+++%...XXX.   ..XXo=>@OoooO+@@@@+ooXXX...o$X..   .+..",
"XoXXX++++O+@++..XoXX..   ..XXoOo@&=::::OOOoXXXX...XX. ...    %o.",
".....XooXXXX. .XooX....   ..X.X+O.....XOoooXX............    o%O",
"%$OXXXX...XXXXXX.....Xo  .............XoooXX............      .@",
".X@@o..XX............X   .......... .XXXXXX..........         . ",
"               .............. .    . ............ ...           ",
".X                   ..........  .   . ...                      ",
".o+X.   .   ...   o*@OOooooOOoooXXXXXXXXXO+%@.        O:=XX....X",
"..o++.... ..   ..=>$o+$oX..XXXXXXooooXXXXXXX$:&       =&@OXO+oX.",
"....X+O....   .X:>Oo%3=*&@o..XX..XXXX.......XX==X    o$X.X.XXXoo",
",,,,,,,,,<<<,,,2##,,,,,,,,,,,,,;;;;;;,,,,,,,,<1<#-;,;;;;;,,,,,,,"
};
