/* XPM */
static char *spriteB1_R_xpm[] = {
/* width height num_colors chars_per_pixel */
"    32    32      256            2",
/* colors */
"`` c #040204",
"`. c #6c727c",
"`# c #443a44",
"`a c #9caebc",
"`b c #ac7254",
"`c c #845a44",
"`d c #5c565c",
"`e c #34120c",
"`f c #8492a4",
"`g c #a48e84",
"`h c #643e34",
"`i c #b4c6d4",
"`j c #24161c",
"`k c #8c7674",
"`l c #a4bacc",
"`m c #5c6a7c",
"`n c #34262c",
"`o c #949eac",
"`p c #5c4a44",
"`q c #a49e9c",
"`r c #1c020c",
"`s c #7c666c",
"`t c #acaaac",
"`u c #4c261c",
"`v c #c4724c",
"`w c #6c666c",
"`x c #84828c",
"`y c #543a3c",
"`z c #948e9c",
"`A c #1c0e0c",
"`B c #8c8694",
"`C c #5c5e64",
"`D c #bc8e7c",
"`E c #a44e2c",
"`F c #7c727c",
"`G c #644a4c",
"`H c #1c1e1c",
"`I c #b4babc",
"`J c #acb2bc",
"`K c #6c6e7c",
"`L c #9496a4",
"`M c #343234",
"`N c #544244",
"`O c #9cb2c4",
"`P c #ac7a64",
"`Q c #6c5a64",
"`R c #9ca6b4",
"`S c #bc9e94",
"`T c #1c0a0c",
"`U c #8c624c",
"`V c #4c3234",
"`W c #c47e5c",
"`X c #9c827c",
"`Y c #747a84",
"`Z c #64565c",
"`0 c #a49694",
"`1 c #9c9ea4",
"`2 c #5c525c",
"`3 c #74666c",
"`4 c #2c0e1c",
"`5 c #c4866c",
"`6 c #74727c",
"`7 c #44424c",
"`8 c #945e44",
".` c #341e24",
".. c #2c161c",
".# c #9c766c",
".a c #acbac4",
".b c #646e7c",
".c c #544e5c",
".d c #9c8e8c",
".e c #240e14",
".f c #8c8a94",
".g c #bc9684",
".h c #a45a3c",
".i c #744e44",
".j c #b4b6bc",
".k c #bc7a5c",
".l c #240a14",
".m c #5c3634",
".n c #0c0e0c",
".o c #a4aab4",
".p c #8c5e4c",
".q c #8c8e9c",
".r c #6c4634",
".s c #947e74",
".t c #64666c",
".u c #3c2a34",
".v c #b4aeb4",
".w c #6c6a7c",
".x c #848a94",
".y c #5c3a34",
".z c #6c626c",
".A c #64525c",
".B c #2c1e24",
".C c #b4c2d4",
".D c #acb6bc",
".E c #9c9aac",
".F c #442e34",
".G c #5c4244",
".H c #c49e94",
".I c #946e5c",
".J c #543634",
".K c #c4826c",
".L c #b49a94",
".M c #9ca2b4",
".N c #acbed4",
".O c #c49684",
".P c #140204",
".Q c #6c7684",
".R c #4c3a44",
".S c #845e4c",
".T c #5c5a64",
".U c #c4daec",
".V c #94766c",
".W c #342a34",
".X c #b4a6ac",
".Y c #7c6e74",
".Z c #acaeb4",
".0 c #6c6a74",
".1 c #848694",
".2 c #949294",
".3 c #948284",
".4 c #645e6c",
".5 c #a45634",
".6 c #7c7a7c",
".7 c #6c4e44",
".8 c #bcbabc",
"#` c #746e74",
"#. c #341a24",
"## c #4c2e34",
"#a c #bc7254",
"#b c #84625c",
"#c c #3c1e1c",
"#d c #847e8c",
"#e c #ac928c",
"#f c #3c2e34",
"#g c #a4b2bc",
"#h c #b47e6c",
"#i c #94624c",
"#j c #6c4234",
"#k c #5c3e44",
"#l c #5c4e54",
"#m c #948a8c",
"#n c #0c0204",
"#o c #ac9e9c",
"#p c #1c0e1c",
"#q c #1c0a1c",
"#r c #cc866c",
"#s c #4c424c",
"#t c #6c4644",
"#u c #443e4c",
"#v c #8c7a7c",
"#w c #543e44",
"#x c #949aa4",
"#y c #bca29c",
"#z c #4c363c",
"#A c #c48264",
"#B c #645a64",
"#C c #a49a94",
"#D c #9ca2ac",
"#E c #746a74",
"#F c #747684",
"#G c #34222c",
"#H c #2c1a1c",
"#I c #acbecc",
"#J c #241214",
"#K c #bc9a8c",
"#L c #bc7e5c",
"#M c #a4aebc",
"#N c #8c929c",
"#O c #646a74",
"#P c #2c2224",
"#Q c #5c464c",
"#R c #a4b6c4",
"#S c #946654",
"#T c #241a1c",
"#U c #94a2ac",
"#V c #1c060c",
"#W c #a4522c",
"#X c #9c867c",
"#Y c #9c928c",
"#Z c #a45e3c",
"#0 c #c4a294",
"#1 c #c4deec",
"#2 c #948684",
"#3 c #64626c",
"#4 c #6c7284",
"#5 c #9caec4",
"#6 c #845a4c",
"#7 c #5c5664",
"#8 c #342634",
"a` c #5c4a4c",
"a. c #acaab4",
"a# c #6c6674",
"aa c #848294",
"ab c #b4bac4",
"ac c #acb2c4",
"ad c #54424c",
"ae c #1c0a14",
"af c #c47e64",
"ag c #645664",
"ah c #9c9eac",
"ai c #acbacc",
"aj c #bc968c",
"ak c #240a1c",
"al c #646674",
"am c #acb6c4",
"an c #54363c",
"ao c #94929c",
"ap c #6c4e4c",
"aq c #746e7c",
"ar c #3c2e3c",
"as c #5c4e5c",
"at c #949aac",
"au c #a49a9c",
"av c #2c1a24",
"aw c #24121c",
"ax c #bc7e64",
"ay c #8c92a4",
"az c #2c222c",
"aA c #000000",
"aB c #000000",
"aC c #000000",
"aD c #000000",
"aE c #000000",
"aF c #000000",
"aG c #000000",
"aH c #000000",
"aI c #000000",
"aJ c #000000",
"aK c #000000",
"aL c #000000",
"aM c #000000",
"aN c #000000",
"aO c #000000",
"aP c #000000",
"aQ c #000000",
"aR c #000000",
"aS c #000000",
"aT c #000000",
"aU c #000000",
"aV c #000000",
"aW c #000000",
"aX c #000000",
"aY c #000000",
"aZ c #000000",
"a0 c #000000",
"a1 c #000000",
"a2 c #000000",
"a3 c #000000",
"a4 c #000000",
"a5 c #000000",
"a6 c #000000",
"a7 c #000000",
"a8 c #000000",
/* pixels */
"````````````````````````````````````````````````````````````````",
"````````````````````````````````````````````````````````````````",
"```````````M`A#n``````````````````````````````#n`A`M````````````",
"``````````aw#J.l.P#n.P#n#n#n#n#n#n#n#n#n.P#n.P.l#J`j````````````",
"```````M#V`A.e`javavav.B.B#G#Paz#G#P.`.Bavavav`j#J.e#V`M````````",
"```````j#p`r`Aar.c#7`d#3`.#F#4`6#4.Q#4.4`2#7.car.l.P.e..````````",
"```H#V#p.law#8`d#daoao`o`a#g#M`a#g#g`R#Dayao#d`Z#8aw`A.e#q`H````",
"`H`jae`r.e#u.0.3#e.X#R#M`q`0#Cau#C#Y`qam#I.v#e.3.0#u.e.P.l`j#.``",
"akaw.eae`nal`1.g#A#K.X#Y.I.p#i`U#S`8.I`q.8#0`5.g`1al#8.l.e#J`4``",
".nae`j#f`2.6`gax`vaf`D`P#Z#W.5.5.5`E#Z#h#K#r`v.k.d.6`2ar`jae`A``",
"``.Pav#7.1#m.#`b.k`W#L.k#a`b#a#a`b#a`b`W.k`W#a`b.##m`B`d.B.P````",
"``#n.Baq`J`I#o#e#y.Haj#K`S.H`S`S.H`S`S.gaj.H#y.L#o.j#g`6.B#n````",
"``#n.B.t`R`l#M#M#M.D.a.aab.a.a.D.a`I.aab.a.D#M.o`a.a`Ral.`#n````",
".n`Tav`#`C.b.b`m.b`f`O#I`l`O#g`a`O#g`l`l`O`f.Q`m.b.b`C`#..`T`A``",
"#p#Jaw#G.W.u#G#H`M#B.x#x#Naoay#x`Layay#x.f.T.W#H#G.u.u#G`j`A`4``",
".nae#T#u.T`p`u`e#..R#B`3.z`F.f`L.f`F.z.z`Q.R#.`e`u`p`d`7av`A`A``",
"``#n#Gal`1.d.S`h.J#z`y#wa`aq.qahay#``G#w#w#z.J`h#6.d`o.0#P#n````",
"``#n.B.0.oa..3#b.7.m#z#Qa#`B`Lah`Laa`3ad`y`y.7#b.3`t.o`Kaz#n````",
"``.P.B#7#N#D#Y.V#6`h#k#B#d.f.q.q.q.q#d.4#k`h`c.V`z#D#Nag.B.P````",
"``#nav#laaah`L.s.p.r#k`2`3aq`w.z.zaq#E`2.G.r.p.s`Lah.1asav.P````",
"``.Pav`d.f.Mao`k#6#j`y.R`N.G.G.G.G.G#w.R`y#j`c.Vao.M.q`dav.P````",
"``#n.B#3ah#M#N`s#t.J`V.F##.J`h#j`h.J##.F`V.m`G`s.q.o`o.z.B.P````",
"``#n.``K#R.C.E#``G#w.G#w.Gap#6`U#6.i.G`N`N#w`G#E.E.C#R`.#G#n````",
"``#n#P#F`i#1.a.q`F#E#`aq`F#v`X#X`X#v`Faq.Y`3`6.q.a.U`i#F#P#n````",
"``#n.Ba#`a`i#Rat.1#d`xaa`x`B`B`B`B.1`xaa`x#d.1#x#R`i`a.0.B#n````",
".n#V#H#s.0#F`.a#.4#B#B.4#B.T#B.T.T#B#B.4#B#B.4`w`.#Fa##s#H`T`A``",
"#paw`jav.B#G#P.B.B.B.B.`.B.B.Bav.B.B.`.B.B.B.B#G.B#G#Pav`j#J`4``",
"`Haw#J#V#n#n#n.P.P.P.P.P.P.P.P.P.P.P.P.P.P.P.P.P#n#n#n#V#J...```",
"``#.`A#n``````````````````````````````````````````````#n`A#c````",
"````````````````````````````````````````````````````````````````",
"````````````````````````````````````````````````````````````````",
"````````````````````````````````````````````````````````````````"
};
