/* XPM */
static char *e990637dd9a5438bfd10cac989ca30acaF63kJI3VzQKBekR[] = {
/* columns rows colors chars-per-pixel */
"64 64 3 1 ",
"  c #494949",
". c #5A5A59",
"X c #696967",
/* pixels */
" .XXXXXXXXXXXXXXXXXX...XX..X.... .XXXXXXXXXXXXXXXXXX...XX..X....",
" X.............................. X..............................",
" X.............................. X..............................",
" X.............................. X............................. ",
" X.............................. X............................  ",
" X.............................. X..............................",
" X......... .................... X..............................",
" X....................   ....... X.....XX.......................",
" X....................   ....... X.....XX..X..............  ....",
" X.............................. X........................  ....",
" X.............................. X..............................",
" X.............................. X..............................",
" X.............................. X..............................",
" X.............................. X..............................",
" X.............................. X...............X  ............",
" X.............................. X...............X  ............",
" X....... ...................... X..............................",
" X.............................. X....X  .......................",
" X.............................. X....X  .. ....................",
" X.............................. X....X  .......................",
" X.............................. X....................XXX.......",
" X.............................. X....................XXX.......",
" X.............................. X..............................",
" X................  ............ X..............................",
" X................  ............ X..............................",
" X.............................. X..............................",
" X.............................. X..............................",
" X.............................. X............................. ",
" X.............................. X............................  ",
" X.............................. X...........X     .........    ",
" X.............................. X..........X     .........     ",
"                                                                ",
" .XXXXXXXXXXXXXXXXXX...XX..X.... XXXX...XXXX.... XXX...XX..X....",
" X.............................. X.............. X..............",
" X.............................. X.............. X..............",
" X..  . ........................ X.............. X..............",
" ...  ...........XX............. ....X.......... X..............",
" ................XX............. ............... X..............",
" ....................    ....... ............... X......XX......",
" ..............X.....    ....... .......... .... ......X    ....",
" X....................   ....... X.............. .....X     ....",
" X.............................. X.............. .......X  .....",
" X..... ........................ X....X......... X..............",
" X....  ........................ X.............. X..............",
" X....  .......................  .....  ........ ...  ..........",
" X............................   X....  ........ X..  ....... ..",
" X............................   X.............. X..........   .",
" X...........................                                   ",
" ..........X ................    XXXXX.XX..X.... XXXXXXXXXX.X...",
" ..........X  .............. X.  X.............. X..............",
" ....... ..X  .............. ... X.............. X..............",
" X......................... X... X.............. X..............",
" .......................... .... X.............. X...XX.........",
" ......................... X.... X........X....  X...XX....X....",
" ........................ X..... .............   ...............",
" .......................  ...... .............   X..............",
" ....   ..............  X. ..... ..............  X........... ..",
" ....   ............. X.... .... X.. ........... .......   .....",
" ............  ..... X..... .    ...  .......... .......   .....",
" ............  .... X.......     ...  ....XX.... ...............",
" .................. X.......     .........XXX... X..............",
" X.............. . X.......      ............... ...............",
" X................ X.......      ............... ...............",
"                                                                "
};
