/* XPM */
static char *32exit_result_xpm[] = {
/* width height num_colors chars_per_pixel */
"    32    32      256            2",
/* colors */
"`` c #838382",
"`. c #585857",
"`# c #5c5c5b",
"`a c #5d5d5c",
"`b c #5b5b5a",
"`c c #5a5a59",
"`d c #525253",
"`e c #61615f",
"`f c #5c5c5c",
"`g c #5d5d5b",
"`h c #595958",
"`i c #5b5b59",
"`j c #575756",
"`k c #5e5e5d",
"`l c #828281",
"`m c #555554",
"`n c #525251",
"`o c #5a5a57",
"`p c #575757",
"`q c #565655",
"`r c #535353",
"`s c #5f5f5e",
"`t c #515150",
"`u c #595959",
"`v c #545453",
"`w c #545454",
"`x c #595957",
"`y c #858584",
"`z c #5b5b58",
"`A c #5a5a58",
"`B c #565656",
"`C c #636362",
"`D c #5c5c5a",
"`E c #6b6b6b",
"`F c #535352",
"`G c #585858",
"`H c #484849",
"`I c #434343",
"`J c #454545",
"`K c #444444",
"`L c #454544",
"`M c #404040",
"`N c #525252",
"`O c #60605f",
"`P c #575755",
"`Q c #373736",
"`R c #2a2a2a",
"`S c #2c2c2b",
"`T c #2c2c2c",
"`U c #222221",
"`V c #666665",
"`W c #383837",
"`X c #2d2d2c",
"`Y c #2f2f2d",
"`Z c #2f2f2e",
"`0 c #252524",
"`1 c #676766",
"`2 c #393938",
"`3 c #3a3a39",
"`4 c #242423",
"`5 c #6b6b6a",
"`6 c #2e2e2f",
"`7 c #343434",
"`8 c #353536",
".` c #313130",
".. c #2e2e2d",
".# c #343436",
".a c #313131",
".b c #4f4f4d",
".c c #5f5f5f",
".d c #282827",
".e c #272726",
".f c #2a2a29",
".g c #4d4d4c",
".h c #5d5d5d",
".i c #5f5f5d",
".j c #4f4f4c",
".k c #5e5e5e",
".l c #4f4f4e",
".m c #1d1d1c",
".n c #232323",
".o c #20201f",
".p c #474746",
".q c #696967",
".r c #656564",
".s c #686867",
".t c #3a3a3a",
".u c #737372",
".v c #626262",
".w c #616161",
".x c #585856",
".y c #363635",
".z c #212120",
".A c #555555",
".B c #868685",
".C c #535351",
".D c #484848",
".E c #4e4e4d",
".F c #4b4b4a",
".G c #4e4e4b",
".H c #4d4d4d",
".I c #4b4b4b",
".J c #4a4a49",
".K c #838381",
".L c #7e7e7d",
".M c #51514f",
".N c #565654",
".O c #505051",
".P c #000000",
".Q c #000000",
".R c #000000",
".S c #000000",
".T c #000000",
".U c #000000",
".V c #000000",
".W c #000000",
".X c #000000",
".Y c #000000",
".Z c #000000",
".0 c #000000",
".1 c #000000",
".2 c #000000",
".3 c #000000",
".4 c #000000",
".5 c #000000",
".6 c #000000",
".7 c #000000",
".8 c #000000",
"#` c #000000",
"#. c #000000",
"## c #000000",
"#a c #000000",
"#b c #000000",
"#c c #000000",
"#d c #000000",
"#e c #000000",
"#f c #000000",
"#g c #000000",
"#h c #000000",
"#i c #000000",
"#j c #000000",
"#k c #000000",
"#l c #000000",
"#m c #000000",
"#n c #000000",
"#o c #000000",
"#p c #000000",
"#q c #000000",
"#r c #000000",
"#s c #000000",
"#t c #000000",
"#u c #000000",
"#v c #000000",
"#w c #000000",
"#x c #000000",
"#y c #000000",
"#z c #000000",
"#A c #000000",
"#B c #000000",
"#C c #000000",
"#D c #000000",
"#E c #000000",
"#F c #000000",
"#G c #000000",
"#H c #000000",
"#I c #000000",
"#J c #000000",
"#K c #000000",
"#L c #000000",
"#M c #000000",
"#N c #000000",
"#O c #000000",
"#P c #000000",
"#Q c #000000",
"#R c #000000",
"#S c #000000",
"#T c #000000",
"#U c #000000",
"#V c #000000",
"#W c #000000",
"#X c #000000",
"#Y c #000000",
"#Z c #000000",
"#0 c #000000",
"#1 c #000000",
"#2 c #000000",
"#3 c #000000",
"#4 c #000000",
"#5 c #000000",
"#6 c #000000",
"#7 c #000000",
"#8 c #000000",
"a` c #000000",
"a. c #000000",
"a# c #000000",
"aa c #000000",
"ab c #000000",
"ac c #000000",
"ad c #000000",
"ae c #000000",
"af c #000000",
"ag c #000000",
"ah c #000000",
"ai c #000000",
"aj c #000000",
"ak c #000000",
"al c #000000",
"am c #000000",
"an c #000000",
"ao c #000000",
"ap c #000000",
"aq c #000000",
"ar c #000000",
"as c #000000",
"at c #000000",
"au c #000000",
"av c #000000",
"aw c #000000",
"ax c #000000",
"ay c #000000",
"az c #000000",
"aA c #000000",
"aB c #000000",
"aC c #000000",
"aD c #000000",
"aE c #000000",
"aF c #000000",
"aG c #000000",
"aH c #000000",
"aI c #000000",
"aJ c #000000",
"aK c #000000",
"aL c #000000",
"aM c #000000",
"aN c #000000",
"aO c #000000",
"aP c #000000",
"aQ c #000000",
"aR c #000000",
"aS c #000000",
"aT c #000000",
"aU c #000000",
"aV c #000000",
"aW c #000000",
"aX c #000000",
"aY c #000000",
"aZ c #000000",
"a0 c #000000",
"a1 c #000000",
"a2 c #000000",
"a3 c #000000",
"a4 c #000000",
"a5 c #000000",
"a6 c #000000",
"a7 c #000000",
"a8 c #000000",
/* pixels */
"```.`#`a`b`c`.`a`#`a`b`#`d`e`#`f`g`b`c`h`a`#`a`b`i`j`k`#`f`i`b`c",
"`l`m`.`c`n`b`o`h`.`c`p`q`r`s`h`.`c`t`c`.`h`.`c`m`p`h`h`.`h`b`n`c",
"`l`m`c`h`b`u`o`c`c`c`c`i`r`s`h`c`c`c`c`.`c`c`u`i`c`.`c`c`c`h`b`h",
"`l`v`c`c`h`c`o`c`.`c`c`c`r`s`.`c`c`h`c`.`c`.`c`c`c`.`c`.`c`c`h`c",
"`l`m`c`w`b`u`x`c`c`b`w`i`r`s`h`c`m`b`h`.`c`c`j`j`c`.`c`c`b`m`c`c",
"`y`m`c`b`c`b`z`c`c`A`b`a`B`C`#`a`k`a`k`D`a`h`c`c`c`c`c`c`c`b`c`c",
"`E`q`.`h`B`m`F`c`.`G`x`H`I`J`K`K`K`K`L`K`M`s`h`q`j`N`c`.`.`p`B`m",
"`O`.`.`h`P`c`A`h`.`h`k`Q`R`S`S`S`S`S`S`T`U`V`.`p`h`h`h`.`h`h`P`c",
"`a`h`c`c`q`c`o`c`c`c`a`W`X`Y`Y`Y`Y`Y`Y`Z`0`1`h`p`h`.`c`c`c`c`q`c",
"`O`j`c`h`c`c`o`c`.`c`s`2`X`Z`Z`Z`Z`Z`Z`Z`0`1`h`c`c`.`c`.`c`c`c`c",
"`C`h`h`b`h`c`o`c`c`c`s`2`X`Z`Z`Z`Z`Z`Z`Z`0`1`h`c`c`.`c`c`c`c`c`c",
"`#`h`c`w`#`b`b`b`b`#`c`3`X`Z`Z`Z`Z`Z`Z`Z`4`5`G`u`b`b`i`u`c`m`c`c",
"`m`h`.`c`j`6`7`7`7`7`8.`..`Z`Z`Z`Z`Z`Z`Z`X.#`7`7`7`7.a.b`c`j`q`m",
"`h`c`c`c.c`0`X`X`X`X`X..`Z`Z`Z`Z`Z`Z`Z`Z`Z`X`X`X`X`X.d.b`b`c`b`c",
"`.`c`.`c`G.e`Z`Z`Z`Z`Z`Z`Z`Z`Z`Z`Z`Z`Z`Z`Z`Z`Z`Z`Z`Z.f.g`b`b`n`c",
"`.`c`c`c.h.e`Z`Z`Z`Z`Z`Z`Z`Z`Z`Z`Z`Z`Z`Z`Z`Z`Z`Z`Z`Z.f.b`b`h`c`c",
"`h`.`c`c.h.e`Z`Z`Z`Z`Z`Z`Z`Z`Z`Z`Z`Z`Z`Z`Z`Z`Z`Z`Z`Z.f.b`b`c`c`c",
"`.`c`c`v.i.e`Z`Z`Z`Z`Z`Z`Z`Z`Z`Z`Z`Z`Z`Z`Z`Z`Z`Z`Z`Z.f.j`#`v`c`c",
"`h`c`c`i.k.e`Z`Z`Z`Z`Z`Z`Z`Z`Z`Z`Z`Z`Z`Z`Z`Z`Z`Z`Z`Z.f.l`b`c`c`c",
"`q`h`h`h`c.m`0`4`0`0`0`S`Z`Z`Z`Z`Z`Z`Z`Z`Z.n`4`0`0`0.o.p`b`j`B`m",
"`h`c`.`c`n.q`C`1`V.r.s.t`X`Z`Z`Z`Z`Z`Z`Z`4.u`V`e.v.w.s`a`h`b`n`b",
"`.`c`c`h`b`h`x`h`h`h`k`2`X`Z`Z`Z`Z`Z`Z`Z`0`V`.`c`h`.`h`h`c`h`b`h",
"`h`.`c`c`h`c`o`c`.`c`s`2`X`Z`Z`Z`Z`Z`Z`Z`0`1`h`c`c`.`c`.`c`c`h`c",
"`.`c`c`j`c`c`o`c`c`c`#`3`X`Z`Z`Z`Z`Z`Z`Z`0`1.x`.`c`.`c`c`c`j`c`c",
"`.`c`c`.`c`c`A`c`c`c`a`3`X`Z`Z`Z`Z`Z`Z`Z`0`1`.`h`c`c`c`c`c`j`c`c",
".r`j`.`h`q`q`F`A`.`.`b.y.d.f.f.f.f.f.f.f.z.w`x`q`B`N`c`.`.`j`q.A",
".B`w`.`h`b`c`c`h`.`h`b.C.D.l.E.F.G.H.l.I.J`k`h`b`c`c`h`.`h`c`b`c",
"`l`m`c`c`N`b`x`c`c`c`.`q.A`e`c`b`#`n`#`c`b`c`c`w`.`.`c`c`c`b`N`c",
"`l`v`c`u`c`u`o`c`.`c`c`i`r`s`.`c`c`c`c`.`c`.`c`c`c`.`c`.`c`h`c`c",
"`l`m`u`i`u`c`o`c`c`u`i`c`r`s`h`c`c`c`c`.`c`c`c`c`c`.`c`c`c`c`c`c",
".K`q`i`w`i`c`A`c`c`i`w`b`r`O`c`c`m`c`c`h`c`c`p`p`c`h`c`c`c`m`c`c",
".L.M`m`q`m`q.N`m`m`m`q`m.O`c`m`m`q`m`q`m`m`m.N.N`m`m`m`m`m`q`m`m"
};
