/* XPM */
static char *_849fdec78964ee2fc990b7562d8ba1cOgEjZmlY2lTVTEeD[] = {
/* columns rows colors chars-per-pixel */
"64 64 120 2 ",
"   c #242423",
".  c #272726",
"X  c #272727",
"o  c #282827",
"O  c #282828",
"+  c #292928",
"@  c #2A2A29",
"#  c #2A2A2A",
"$  c #2B2B2A",
"%  c #2C2C2B",
"&  c #2D2D2C",
"*  c #2D2D2D",
"=  c #2E2E2D",
"-  c #2F2F2E",
";  c gray19",
":  c #313130",
">  c #323231",
",  c #333332",
"<  c #343431",
"1  c #343433",
"2  c #343434",
"3  c #353534",
"4  c #363634",
"5  c #373736",
"6  c #383835",
"7  c #383836",
"8  c #383837",
"9  c #373738",
"0  c gray22",
"q  c #393938",
"w  c #3A3A3A",
"e  c gray23",
"r  c #3B3B3C",
"t  c #3C3C3C",
"y  c #434342",
"u  c #444444",
"i  c #454546",
"p  c #494948",
"a  c #494949",
"s  c #49494A",
"d  c gray29",
"f  c #4B4B4A",
"g  c #4B4B4B",
"h  c #4C4C4B",
"j  c #4C4C4C",
"k  c #4D4D4C",
"l  c #4C4C4D",
"z  c gray30",
"x  c #4E4E4D",
"c  c #4E4E4E",
"v  c #4F4F4E",
"b  c #4E4E4F",
"n  c gray31",
"m  c #50504F",
"M  c #505050",
"N  c #515150",
"B  c #515151",
"V  c #525251",
"C  c gray32",
"Z  c #535352",
"A  c #535353",
"S  c #545453",
"D  c gray33",
"F  c #555554",
"G  c #555555",
"H  c #565655",
"J  c #555556",
"K  c #565656",
"L  c #575756",
"P  c #565657",
"I  c gray34",
"U  c #585856",
"Y  c #585857",
"T  c #595957",
"R  c #585858",
"E  c #595958",
"W  c gray35",
"Q  c #5A5A58",
"!  c #5A5A59",
"~  c #5B5B59",
"^  c #5B5B5A",
"/  c #5C5C5A",
"(  c #5C5C5B",
")  c #5D5D5B",
"_  c #5E5E5B",
"`  c gray36",
"'  c #5D5D5C",
"]  c #5D5D5D",
"[  c #5E5E5C",
"{  c #5F5F5C",
"}  c #5E5E5D",
"|  c #5F5F5E",
" . c #60605E",
".. c #60605F",
"X. c #61615F",
"o. c #616160",
"O. c gray38",
"+. c #626260",
"@. c #626261",
"#. c #636361",
"$. c #636362",
"%. c #646462",
"&. c #646463",
"*. c #656563",
"=. c #656564",
"-. c #666664",
";. c #666665",
":. c #676765",
">. c #676766",
",. c #686866",
"<. c #686867",
"1. c #6D6D6C",
"2. c #70706F",
"3. c #737372",
"4. c #9A9A99",
"5. c #9B9B9B",
"6. c gray64",
"7. c #A8A8A7",
"8. c #ABABAA",
"9. c #ADADAC",
/* pixels */
"7.Y ....@.@.| ..Y ..E ( K ( ..............Y ..( E V @...@.| ....@.( E ..( ( V @.@.| @.| @...| E | ( E K @.@...........E ..E | Y ",
"8.m E E E E E E E Y Y ( K ( Y Y E Y E E E E E E E V @.Y E E E E E E E E Y E V | E E Y E E Y E E Y E E Y E E Y E E E E E E E E E ",
"8.V E E K E E E E K E E H ( ~ ( ( K E E E Y Y E E k @.Y E E I E E ( Y K E E H | E E E E E ( E Y Y ( E E E E E K E E E E K E E ( ",
"8.V ( E E E ( ( E h ( E H  .Y Y E E ( ( E K k ( ( V @.E | E E E E E V V E Y H ( E E E ( E E ( k K E E Y ( E E ( E ( ( ( h E E E ",
"8.m ( E E ( E E ( ( Y ( H ( Y ~ ( E E E E ( ( E E V @.E E E E E E E E ( ( ( H | E E E E E E E ( E E E E E ( E E E ( ( E ( E ( E ",
"8.V E E E E ( E Y Y ( Y H ( Y ~ E E ( E E E E ( E V @.E E ` E | ( ( E E E E H ( E ( ( E ( ( E E E E E Y E E ( E E E E E E E ( E ",
"8.V E K ( ( E E ( Y Y ( H ( Y ( K E ( E ( E E E E M @.E E K E E E E ( E E E V | E E K ( E E E E ( ( E E ( ( Y E ( E E ( E ( E E ",
"8.m E E E E E ( Y ( ~ Y H  .Y ~ ( E E E ( E ( E E V @.E E ` E E E ( E E ( E V | E E E E E ( E | E E E E E E E E ( E E ( E E E ( ",
"8.V E ( E ( E E ( Y Y ( H ( Y ~ E ( E E E E ( E E m *.Y ( Y ( Y E ( E ( E ( K | Y E ( E E E ( E E E E Y E ( ( E E E ( E ( ( E E ",
"8.V E E E E ( p ( ( ( Y H ( Y ~ E ( E | a | E E E m @.Y Y ( Y ~ Y k ( E E ( V | Y E ( E E D V E ( ( E Y E E E E E ( k Y E E E ( ",
"8.m ( E ( E ( ( Y Y ( ( H ( Y ( E E ( E E ( E E E V *.Y ( Y Y ~ E E E E E E V | E E E E ( E E E E E ( Y ( E E ( ( ( ( E E E E ( ",
"8.V E E ( E E Y Y ( Y ( H  .( Y ( E E E E E ( ( | V *.Y ( ( ( ( ( ( ( ( ( E K | ( ( E ( E E ( E E ( E Y ( E E E E E E E ( ( E E ",
"5.k K V H H V H m H m m m m U H K V K V V V V k k a V k h m h h k k k k M k l M k k K D D K V D V H V k H V K K K V K V H V V V ",
",.( ( | ( ..( ..E ( ( ( H (  .( | | ( | | ` k e r r t t t t t t t t t t t t t t t 9 -.| ( | E ( | E E K | | ( ( | ( | ( ( E | E ",
"-.Y E E Y Y Y Y ( Y Y ( H ( Y Y E E E E E E k = ; ; ; ; ; ; ; ; ; ; ; ; ; ; ; ; ; + -.E Y E E E E E E E E E E E Y Y E E ( E Y E ",
"1.Y ( E K E ( ( E m ~ Y H  .Y ~ E I E E E E a + = = = = = = = = = = = = = = = = = + -.K E E E K E E E E ( E E K E E E E V E E E ",
"@.Y E ( E E E ( Y m ( Y K ( Y ( Y ( ( Y ( Y p % = < = ; = = = < ; = < = = ; ; = = o ,.E ( Y Y H K E ( E E ( E E E ( E E V E ( E ",
"..E E ( E ( E E Y ( E ( H  .Y ~ ( Y Y ( Y ( h % = ; = = = ; = ; = = = = = = = = ; + -.E Y ( E Y E E E E E ( E ( E E ( E E E ( E ",
"*.Y E E ( E ( E ( Y ( Y H ( Y ~ Y Y ( Y Y ( h % = = = < = = = = = ; = ; < = = ; = o -.E ( Y Y ( E E E E E E E E ( ( E E E ( E E ",
"1.K E K E E ( E Y ( Y ( H ( Y ~ K ( Y ( ( ( h o ; = = = < = ; = = = = ; = = = ; ; o ,.Y Y ( ( Y ( E E E ( E E E E E E ( E E E ( ",
"*.Y E E E E ( E ( Y ( Y H ( Y ( Y ( Y ( Y ( h o = ; = = ; = = = < = ; = ; = = = = o *.Y Y ( Y ( E E E E E ( ( E ( E E E ( ( E E ",
"3.Y ( ( ( E E ( Y ( Y ( H  .Y Y ( Y ( Y ( ( h % = = = ; = = ; = = = ; = = = ; = ; o -.E Y Y ( Y E ( E Y E E E E E E ( E E E E ( ",
"-.E E E ( E ( a ( Y Y ~ H  .Y Y Y ( Y ( h ( h % = < = ; = < = < ; = = = ; ; ; = ; o ,.E Y H H ~ E E E Y ( Y E E E ( m Y E E E ( ",
"E E ( E E E E ( Y ( H H m U H H H H H H H H p % = ; = = = = = ; = = = < % ; = ; = + *.K H H H U K K K H H H K E E E E E ( ( E E ",
"E E | E E E E E | D 9 e t t t t e e e e t t q % ; = = ; = = = = = ; < = = = = ; = = t t t q t q e t t t e e y | E ( E E E E E ( ",
"k E E I E E E E k K ; 1 1 1 < 1 1 1 1 1 1 6 < = = ; = = < = ; = = = = = = ; = = ; = 1 1 1 1 1 1 1 1 1 1 ; ; e | Y E Y H Y V K V ",
"E E E E E ( E ( E I + = = = = % = = % % = = = = ; = ; = ; = = = < = ; ; = = < = = = = = = = = = % % ; % ; % 5 @.E E E E E ( E E ",
"E ( E E E ( E E ( E + = = = ; ; ; = ; ; = = ; = = = ; = = = ; = = = = = ; ; = = ; = = = ; = = ; ; ; % ; ; % 5 ..E E ( E | E E E ",
"E E E E K E ( E E k % = ; = = = = = ; = = < = ; = < = ; = = = < ; = < = = = = = = = ; < = = = ; = = = ; = = 6 | E E E ( a Y E E ",
"E E ( E E ( E E E K + ; = ; ; ; = ; = = = = = = = = = = = ; = ; = = = = = < = ; ; = = = < ; = = = ; = = = = 6 @.E ( E E K E ( E ",
"E E E E E E ( ( E I + = ; = ; % = = ; ; = = ; < = = ; < = = = = = ; = ; = = = ; = = ; = = = = = ; = ; = = = 5 @.E E E ( E ( E E ",
"E E E ( ( E E E E I + ; = ; = ; ; = = = ; = = = ; = = = < = ; = = = = ; = < = = < = = = ; = < = = = ; = = = 6 @.E ( E ( E E E ( ",
"Y ( E K Y ( Y ( ~ U @ = ; = = = ; = = = = < ; = = = = ; = = = = < = ; = = = < = ; = = = = ; ; = = = = ; ; % 6 ..Y ( ( Y ( Y ( Y ",
"Y Y ( Y ( Y ( E Y Y @ = = = ; ; = = ; = = = = = < ; = = ; = < ; = = = = ; = = = = = < = = = = = < = = = ; % 6 ..Y E E ( Y ( Y ( ",
"Y Y Y ( Y ( Y Y ( Y @ = = ; = = = < = < = ; = ; = = = = = = = = ; ; = = < = ; = = ; = = ; < = ; = = ; = ; % 6 @.E E Y Y ( Y ( Y ",
"Y ( ( Y ( Y ( h ( H @ < = = ; = = = = ; = = = = ; = < = = ; ; = = = = < = = ; = = = < ; = = = = ; = < = ; = 6 ..E ( m Y Y ( Y ( ",
"Y ( Y ( ( Y ( ~ Y K o ; ; ; = = = = ; = = = ; < = = = < ; = = = = ; ; = = = = ; ; = = = = = % ; = = = = = = 6 @.E E E E ( Y ( Y ",
"Y E ( Y Y ( Y ( ( K o ; % ; = ; ; = < = ; = = = = ; = = = = < = = = = = = ; = = = = ; = ; ; ; = = ; < = = = 6 X.E E ( Y Y ( Y ( ",
"k Y Y Y Y Y Y Y m H @ ; ; = ; ; = = = = = = = = = = = ; = ; = = < = < = = = < = = ; = ; = = ; ; = = = = = % < ( E E Y H K V H m ",
"E ( Y ( ( Y ( Y ( K   o o o o o o @ @ o @ @ % = < ; = = = = < ; = = = = ; ; = = = ; o o o o o o @ @ @ @ @ o < X.Y ( E ( E E ( E ",
"Y ( E E Y E E ( Y ( ,.*.( ,.,.-.-.-...,...,.V % = = ; < = = = = ; ; = = = = ; ; = @ 2.-.*.,.,.*.*...@.| -.,.*.Y E ( E ( ( E E ( ",
"Y E ( E Y ( E E Y u E Y H ( E Y ~ Y ~ Y Y H y % ; = = = ; = ; = = = = < = < = = = @ *.U ( Y Y a V E Y E E Y Y Y E E E ( u Y E E ",
"Y ( E E ( E ( E ( ( ( Y H ( Y Y ~ ~ Y ( E ( h % = = ; = = = = = = ; = = = = ; = ; o -.Y ( Y ~ ( E E E E E E E ( ( ( E E ( E ( E ",
"Y E E ( E E ( E Y ( Y ( H ( ~ ~ Y ~ ( Y ( E h % < = = = = ; < = = = = ; ; = = = = o -.Y Y ( Y Y E E E E E ( E ( E E E ( E E ( E ",
"Y ( ( Y E E ( E ( Y ( Y H ( E E Y ( ( E E ( h % = < = ; = = = ; < = ; = = ; < = ; o ,.Y ( Y Y ( | E E E ( E Y E E E E ( ( ( E E ",
"Y E E Y ( E ( E Y ( Y ( H ..E E Y E E E E ( h + = ; = = ; ; = = = = = = = = = = = o -.Y Y ( ( Y E E E E E E E E ( ( E E E E E ( ",
"Y E E E ( E E E ( Y ( Y H ( E ( E E E ( E E h % = = = < = = ; = ; ; = = < = ; ; = o -.Y ( Y ( ( | E E E E ( E ( E E Y E E E E ( ",
"Y E ( E E E Y H Y ( Y ~ H ( E E E ( E Y H ( h % ; = = = = ; = = = = = < = = = = ; o -.~ Y Y H Y E E E E E ( E E E ( H Y ( ( E E ",
"Y E E ( Y ( Y m E ( ( Y K  .Y ~ ( E E E H E h + ; ; % ; % ; ; ; = ; ; = = ; = ; ; o ,.Y E K K E E E | K E ( E E E ( H K Y ( Y ( ",
"E ( E E ( Y ( ( ( Y E Y K ( ( Y E Y ( E ( ( h % ; = = ; ; = = = = = = = ; = ; = = + *.Y E ( E E E E E E E E E ( E E ( Y ( Y ( Y ",
"h H K H H H H H H H H H m Y H H H H H H H Y a % = ; = ; ; ; = ; ; = ; ; % ; = ; ; o E H K H K K K K K K H V H H K H H K H H H H ",
"4.Y ( ( ( ( ( ..H ( H Y H Y ( ( ( ( ( | ( Y k + = % % % % = % % = = = % % % % = % o @.| ( ( E Y Y Y K m | | E | | ( ( K Y K Y H ",
"8.V Y E ( Y Y E ( Y ( Y H  .Y Y Y E E Y Y ( k 5 6 1 5 6 5 5 5 1 6 6 6 1 5 5 1 5 6 ; -.E E E ( E E E E E E E E ( Y Y Y ( Y Y ( Y ",
"8.m Y ( H ( Y ( Y ( Y ( H ( Y ~ E K ( E E ( ( ....H ,...@...| | X. .X...@.*.Y -.@...K Y E E E ( ( E E E ( E E K ( ( E E ( ( Y ( ",
"8.m ( Y Y Y ( Y Y u ( Y H ( Y ~ E ( E ( E H a ( ~ V @.Y Y Y E Y Y ( m h E E V | E E E E E ( E a H E E E E E E E Y ( Y ( u Y ( Y ",
"8.V E ( E ( Y ( ( ( ~ Y H  .Y ~ E ( E E E E ( E Y m @.Y E ( E ( ( Y ~ ~ E E H ..E E E ( E ( E ( E E E E E ( ( E ( Y ( Y ( ( Y ( ",
"8.V ( E ( Y ( Y Y ( Y ( H ( Y ( E E E E ( E ( E E m @.E E Y E E Y ( Y ( Y ( H ( E ( E ( Y ( Y ( ( Y ( Y ( Y Y ( Y ( Y ( Y ( Y ( ",
"8.m Y K Y ( Y ( ( Y ( Y H ( Y Y K ( ( E ( E E E E V @.Y ( K ( ( ( Y ( Y ( Y H ( Y E K E ( Y ( Y Y ( Y Y Y ( Y Y ( Y ( Y ( Y ( Y ",
"8.m ( Y ( Y ( Y Y ( Y ( H ( ~ ( E E ( E E E ( ( E V @.Y E E E E Y ( Y ( Y ( H ( E ( Y ( Y ( Y ( ( Y Y Y ( Y ( Y Y ( Y ( Y ( Y ( ",
"8.V Y ( Y ( Y ( ( Y ( Y H  .Y Y ( E E E ( E E E E V *.Y E ( ( E ( Y ( Y ( Y H ( Y Y ( Y ( Y ( Y Y ( ( Y Y ( Y ( ( Y ( Y ( Y ( Y ",
"8.V ( Y Y ( ~ k ~ ( Y ( H ( Y ~ ( E E ( l | E ` E V @.E E ( E E Y m E E Y ( H ( E ( E ( Y H H ( ( Y ( Y ( Y ( Y ( Y m Y Y ( Y ( ",
"8.m Y ( ( Y Y Y Y Y ( Y H ( Y ~ E E ( E K E E E E V @.E E ( E ( Y Y ( ( ( Y H ( Y Y ( Y E Y K E Y ( Y Y Y ( Y ( Y ( Y Y ( Y ( Y ",
"8.m ( Y Y ( ~ ( ( Y ( ( U ( ( Y E E E E E E E E ` V @.E E E ( E E ( E E E E H ( Y ( ( E E ( ( Y E E ( Y ( Y Y ( ( Y ( Y ( Y Y ( ",
"6.p m H m H m m m H m m m H m H V V K V V V V V V l I V V V V V V V V m H V m H m H m V V V V m H V V V m m H m m H m H m m H m "
};
