/* XPM */
static char *_a49584d9d1044fbe7c4db0cf5265be6fqgg28vHzcJm7HnH[] = {
/* columns rows colors chars-per-pixel */
"64 64 11 1 ",
"  c None",
". c #39314B",
"X c #7A444A",
"o c #564064",
"O c #A05B53",
"+ c #BF7958",
"@ c #EEA160",
"# c #8E478C",
"$ c #CD6093",
"% c #DFF6F5",
"& c white",
/* pixels */
"                                                                ",
"                                                                ",
"                                                                ",
"                                                                ",
"                                                                ",
"                                                                ",
"                                                                ",
"                                                                ",
"                             @@@@@@@@                           ",
"                             @@@@@@@@                           ",
"                           @@@@@@@@@@++                         ",
"                           @@@@@@@@@@++                         ",
"                           ++@@@@++++XX                         ",
"                           ++@@@@++++XX                         ",
"                           ++++OOOOXXXX                         ",
"                           ++++OOOOXXXX                         ",
"                           OO++OOXXXXXX                         ",
"                           OO++OOXXXXXX                         ",
"                           OOOOOOXXXXXX                         ",
"                           OOOOOOXXXXXX                         ",
"                       %%%%OOOOXXXXXXXX%%%%                     ",
"                       %%%%OOOOXXXXXXXX%%%%                     ",
"                 %%%%%%&&&&%%OOOOXXXX%%&&&&%%%%%%               ",
"                 %%%%%%&&&&%%OOOOXXXX%%&&&&%%%%%%               ",
"           %%%%%%&&&&&&&&%%OO%%%%%%%%XX%%&&&&&&&&%%%%%%         ",
"           %%%%%%&&&&&&&&%%OO%%%%%%%%XX%%&&&&&&&&%%%%%%         ",
"       %%%%&&&&&&&&&&&&&&%%&&OOOOXXXX&&%%&&&&&&&&&&&&&&%%%%     ",
"       %%%%&&&&&&&&&&&&&&%%&&OOOOXXXX&&%%&&&&&&&&&&&&&&%%%%     ",
"       %%&&%%%%%%&&&&&&&&&&%%&&XXXX&&%%&&&&&&&&&&%%%%%%&&%%     ",
"       %%&&%%%%%%&&&&&&&&&&%%&&XXXX&&%%&&&&&&&&&&%%%%%%&&%%     ",
"       %%&&&&&&&&%%%%%%%%&&&&&&&&&&&&&&&&%%%%%%%%&&&&&&&&%%     ",
"       %%&&&&&&&&%%%%%%%%&&&&&&&&&&&&&&&&%%%%%%%%&&&&&&&&%%     ",
"       %%&&$$%%$$$$$$$$$$%%%%%%%%%%%%%%%%$$$$##########&&%%     ",
"       %%&&$$%%$$$$$$$$$$%%%%%%%%%%%%%%%%$$$$##########&&%%     ",
"       %%&&oo%%%%%%$$$$$$$$$$$$$$$$$$$$$$$$##########..&&%%     ",
"       %%&&oo%%%%%%$$$$$$$$$$$$$$$$$$$$$$$$##########..&&%%     ",
"       %%&&oo%%%%%%$$$$$$$$$$$$$$$$$$$$$$$$######..%%..&&%%     ",
"       %%&&oo%%%%%%$$$$$$$$$$$$$$$$$$$$$$$$######..%%..&&%%     ",
"       %%&&oooo%%%%oooooo$$$$$$$$$$$$$$$$oooo....%%%%..&&%%     ",
"       %%&&oooo%%%%oooooo$$$$$$$$$$$$$$$$oooo....%%%%..&&%%     ",
"       %%&&oooooooooooooooooooooooooooooooo......%%%%..&&%%     ",
"       %%&&oooooooooooooooooooooooooooooooo......%%%%..&&%%     ",
"       %%&&oo%%oooooooooooooooooooooooo..........%%%%..&&%%     ",
"       %%&&oo%%oooooooooooooooooooooooo..........%%%%..&&%%     ",
"       %%&&oo%%%%%%oooooooooooooo................%%....&&%%     ",
"       %%&&oo%%%%%%oooooooooooooo................%%....&&%%     ",
"       %%&&oooooo%%oooooooo............................&&%%     ",
"       %%&&oooooo%%oooooooo............................&&%%     ",
"       %%&&oo%%oooo................................%%..&&%%     ",
"       %%&&oo%%oooo................................%%..&&%%     ",
"       %%&&&&%%%%%%%%..........................%%%%&&&&&&%%     ",
"       %%&&&&%%%%%%%%..........................%%%%&&&&&&%%     ",
"       %%%%&&&&&&&&%%%%%%%%%%............&&%%%%&&&&&&&&%%%%     ",
"       %%%%&&&&&&&&%%%%%%%%%%............&&%%%%&&&&&&&&%%%%     ",
"       %%%%%%%%%%&&&&&&&&&&%%%%&&%%&&%%&&&&&&&&&&%%%%%%%%%%     ",
"       %%%%%%%%%%&&&&&&&&&&%%%%&&%%&&%%&&&&&&&&&&%%%%%%%%%%     ",
"           %%%%%%%%%%%%%%&&&&&&&&&&&&&&&&%%%%%%%%%%%%%%         ",
"           %%%%%%%%%%%%%%&&&&&&&&&&&&&&&&%%%%%%%%%%%%%%         ",
"                 %%%%%%%%%%%%%%%%%%%%%%%%%%%%%%%%               ",
"                 %%%%%%%%%%%%%%%%%%%%%%%%%%%%%%%%               ",
"                         %%%%%%%%%%%%%%%%                       ",
"                         %%%%%%%%%%%%%%%%                       ",
"                                                                ",
"                                                                "
};
